<svg width="23" height="23" viewBox="0 0 23 23" fill="none" xmlns="http://www.w3.org/2000/svg">
<g clip-path="url(#clip0_66_226)">
<path d="M0 0H23V23H0V0Z" fill="#F7DF1E"/>
<path d="M6.04758 19.2204L7.80761 18.1552C8.14722 18.7572 8.45611 19.2667 9.19705 19.2667C9.90726 19.2667 10.3551 18.9889 10.3551 17.9082V10.5592H12.5165V17.9388C12.5165 20.1774 11.2042 21.1964 9.28968 21.1964C7.56063 21.1964 6.55699 20.3009 6.04749 19.2202M13.6905 18.9888L15.4504 17.9698C15.9137 18.7264 16.5158 19.2822 17.581 19.2822C18.4767 19.2822 19.0477 18.8344 19.0477 18.2168C19.0477 17.4758 18.461 17.2133 17.4729 16.7811L16.9327 16.5493C15.3733 15.8856 14.3389 15.0519 14.3389 13.2919C14.3389 11.6707 15.574 10.4355 17.5039 10.4355C18.878 10.4355 19.8661 10.9142 20.5762 12.1648L18.8933 13.2456C18.5226 12.5817 18.1214 12.3193 17.5038 12.3193C16.8708 12.3193 16.4694 12.7207 16.4694 13.2456C16.4694 13.894 16.8708 14.1566 17.7971 14.558L18.3374 14.7896C20.1747 15.577 21.2091 16.3798 21.2091 18.186C21.2091 20.1315 19.6806 21.1967 17.6273 21.1967C15.6202 21.1967 14.3234 20.2395 13.6904 18.9889" fill="black"/>
</g>
<defs>
<clipPath id="clip0_66_226">
<rect width="23" height="23" fill="white"/>
</clipPath>
</defs>
</svg>
