<svg width="23" height="23" viewBox="0 0 23 23" fill="none" xmlns="http://www.w3.org/2000/svg">
<g clip-path="url(#clip0_66_341)">
<path d="M17.6094 0H5.39062C2.41347 0 0 2.41347 0 5.39062V17.6094C0 20.5865 2.41347 23 5.39062 23H17.6094C20.5865 23 23 20.5865 23 17.6094V5.39062C23 2.41347 20.5865 0 17.6094 0Z" fill="#023430"/>
<path d="M15.3788 9.66638C14.4321 5.49035 12.4592 4.37862 11.9559 3.59276C11.7482 3.24662 11.5643 2.88674 11.4056 2.51562C11.379 2.88668 11.3301 3.12027 11.0147 3.40166C10.3816 3.96615 7.69259 6.15744 7.46627 10.9024C7.25541 15.3264 10.7186 18.0544 11.1761 18.3364C11.5279 18.5095 11.9564 18.3401 12.1655 18.1811C13.8348 17.0355 16.1158 13.9809 15.3806 9.66638" fill="#10AA50"/>
<path d="M11.5489 15.9805C11.4618 17.0755 11.3994 17.7118 11.178 18.3375C11.178 18.3375 11.3233 19.38 11.4253 20.4842H11.7864C11.8726 19.7066 12.0042 18.9347 12.1803 18.1724C11.7128 17.9424 11.5669 16.9413 11.5489 15.9805Z" fill="#B8C4C2"/>
<path d="M12.1797 18.1729C11.7073 17.9547 11.5706 16.9325 11.5496 15.9804C11.6664 14.4096 11.7004 12.8338 11.6517 11.2595C11.6269 10.4335 11.6634 3.60862 11.4482 2.60938C11.5953 2.94785 11.7649 3.2761 11.9559 3.59191C12.4592 4.3784 14.4328 5.49013 15.3788 9.66615C16.1158 13.9734 13.8473 17.0198 12.1797 18.1729Z" fill="#12924F"/>
</g>
<defs>
<clipPath id="clip0_66_341">
<rect width="23" height="23" fill="white"/>
</clipPath>
</defs>
</svg>
