<svg width="38" height="23" viewBox="0 0 38 23" fill="none" xmlns="http://www.w3.org/2000/svg">
<path d="M33.4199 8.94287C33.4049 8.94285 33.3901 8.94733 33.3776 8.95573L32.6917 9.35626C32.6788 9.36425 32.6682 9.37546 32.6609 9.38878C32.6536 9.40211 32.6499 9.41709 32.6502 9.43227V10.2333C32.6502 10.2672 32.6663 10.293 32.6917 10.3099L33.3776 10.7099C33.3901 10.7183 33.4049 10.7228 33.4199 10.7228C33.435 10.7228 33.4498 10.7183 33.4623 10.7099L34.147 10.3099C34.16 10.3017 34.1707 10.2904 34.1782 10.277C34.1856 10.2635 34.1895 10.2484 34.1894 10.233V9.43286C34.1896 9.41759 34.1858 9.40255 34.1783 9.38922C34.1709 9.37589 34.1601 9.36473 34.147 9.35684L33.462 8.95603C33.4496 8.94768 33.4349 8.94291 33.4199 8.94287ZM18.4827 13.7328C18.3579 13.7328 18.2336 13.7632 18.1278 13.8228L14.7514 15.7895C14.6432 15.8531 14.5535 15.9438 14.4912 16.0527C14.429 16.1617 14.3963 16.285 14.3965 16.4105V20.3347C14.3965 20.5903 14.5315 20.8288 14.7514 20.9569L15.6401 21.4673C16.0716 21.6802 16.224 21.6796 16.4184 21.6796C17.0528 21.6796 17.4168 21.2881 17.4168 20.6154V16.7432C17.4164 16.7162 17.4056 16.6905 17.3866 16.6713C17.3676 16.6522 17.342 16.6412 17.315 16.6406H16.8841C16.857 16.641 16.8312 16.652 16.8121 16.6711C16.793 16.6903 16.7821 16.7161 16.7818 16.7432V20.6163C16.7818 20.9142 16.4692 21.2127 15.9702 20.9575L15.0478 20.421C15.0139 20.404 14.9967 20.3608 14.9967 20.3269V16.4017C14.9967 16.3678 15.0139 16.3257 15.0478 16.3084L18.423 14.3505C18.4485 14.3336 18.4912 14.3336 18.5251 14.3505L21.9012 16.3084C21.9348 16.3257 21.9515 16.3593 21.9515 16.402V20.3266C21.9515 20.369 21.9348 20.4037 21.9012 20.4207L18.5251 22.3874C18.4996 22.4043 18.457 22.4043 18.423 22.3874L17.5603 21.8673C17.5349 21.8503 17.501 21.8418 17.4755 21.8588C17.2387 21.995 17.1972 22.0129 16.9686 22.0895C16.9177 22.1064 16.8332 22.14 17.0022 22.2336L18.1278 22.9066C18.2377 22.9659 18.3558 22.9998 18.4827 22.9998C18.6096 22.9998 18.7362 22.9662 18.8376 22.9238L22.214 20.9572C22.3224 20.8935 22.4122 20.8026 22.4744 20.6934C22.5367 20.5843 22.5693 20.4607 22.5689 20.335V16.4105C22.5689 16.155 22.4339 15.9173 22.214 15.7895L18.8376 13.8228C18.7289 13.7632 18.6067 13.7322 18.4827 13.7328ZM23.7538 15.5249C23.5806 15.5256 23.4147 15.5951 23.2926 15.7181C23.1705 15.841 23.1022 16.0074 23.1028 16.1807C23.1023 16.3539 23.1706 16.5202 23.2927 16.6431C23.4148 16.766 23.5806 16.8354 23.7538 16.8361C24.1096 16.8361 24.4052 16.5382 24.4052 16.1807C24.4043 16.0078 24.3355 15.8423 24.2137 15.7197C24.0918 15.597 23.9267 15.5269 23.7538 15.5249ZM23.7451 15.6357C23.8171 15.6348 23.8887 15.6483 23.9555 15.6753C24.0223 15.7023 24.0831 15.7423 24.1343 15.793C24.1856 15.8437 24.2262 15.9041 24.2539 15.9707C24.2816 16.0372 24.2957 16.1086 24.2956 16.1807C24.2956 16.4789 24.05 16.7344 23.7454 16.7344C23.4495 16.7344 23.2039 16.4871 23.2039 16.1807C23.2039 15.8743 23.4577 15.6357 23.7451 15.6357ZM23.5086 15.8144V16.5634H23.653V16.2663H23.7799C23.8307 16.2663 23.8474 16.2833 23.8559 16.3257C23.8559 16.3345 23.881 16.5216 23.881 16.5555H24.033C24.0161 16.5216 24.0076 16.4192 23.9991 16.3596C23.9909 16.2661 23.9827 16.1979 23.881 16.1895C23.9319 16.1722 24.0164 16.1468 24.0164 16.0105C24.0164 15.8147 23.8468 15.8147 23.7626 15.8147L23.5086 15.8144ZM23.6357 15.9336H23.7538C23.7965 15.9336 23.8638 15.9336 23.8638 16.0357C23.8638 16.0696 23.8474 16.1383 23.7538 16.1383H23.6354L23.6357 15.9336ZM19.4054 16.5213C18.4406 16.5213 17.8652 16.93 17.8652 17.6197C17.8652 18.3605 18.4406 18.564 19.363 18.6578C20.471 18.7686 20.5558 18.9306 20.5558 19.1519C20.5558 19.5349 20.2506 19.6968 19.5398 19.6968C18.6429 19.6968 18.4485 19.4752 18.3807 19.0241C18.3807 18.973 18.3391 18.9393 18.2883 18.9393H17.8483C17.8214 18.9396 17.7957 18.9505 17.7768 18.9696C17.7579 18.9887 17.7472 19.0145 17.7471 19.0414C17.7471 19.6202 18.0515 20.3014 19.5325 20.3014C20.5982 20.3014 21.2159 19.8752 21.2159 19.1262C21.2159 18.3938 20.7248 18.1982 19.6846 18.062C18.635 17.9257 18.5254 17.8492 18.5254 17.6024C18.5254 17.398 18.6183 17.1259 19.3966 17.1259C20.0903 17.1259 20.3523 17.2794 20.454 17.7474C20.4591 17.7685 20.471 17.7874 20.4879 17.8011C20.5047 17.8149 20.5256 17.8227 20.5473 17.8234H20.9955C21.0212 17.8234 21.0466 17.8068 21.0639 17.7898C21.0792 17.767 21.0878 17.7404 21.0887 17.7129C21.0212 16.8958 20.4885 16.5213 19.4054 16.5213Z" fill="#5FA04E"/>
<path d="M25.1635 2.20825e-05C25.1275 -0.000506673 25.092 0.00846862 25.0606 0.0260418C25.028 0.0452139 25.0008 0.072413 24.9816 0.105057C24.9624 0.137702 24.9519 0.174708 24.951 0.212564V5.74654C24.951 5.79741 24.9247 5.84886 24.8741 5.88277C24.8507 5.89531 24.8246 5.90188 24.7981 5.90188C24.7716 5.90188 24.7454 5.89531 24.7221 5.88277L23.8257 5.36385C23.7599 5.32626 23.6854 5.30649 23.6097 5.30649C23.5339 5.30649 23.4594 5.32626 23.3936 5.36385L19.807 7.44979C19.7406 7.48722 19.6853 7.54151 19.6467 7.60716C19.608 7.67282 19.5874 7.74752 19.5869 7.82371V11.9868C19.5869 12.14 19.6717 12.285 19.807 12.3616L23.3942 14.4476C23.46 14.4851 23.5344 14.5049 23.6101 14.5049C23.6858 14.5049 23.7602 14.4851 23.826 14.4476L27.4129 12.3616C27.5483 12.285 27.633 12.14 27.633 11.9868V1.60914C27.633 1.44747 27.5483 1.30217 27.4129 1.22586L25.2729 0.0260418C25.239 0.00907669 25.2014 0.000171282 25.1635 2.20825e-05ZM4.00147 5.19399C3.93394 5.19399 3.8664 5.21855 3.80735 5.25246L0.220159 7.3308C0.152741 7.36917 0.0967903 7.42484 0.058089 7.49207C0.0193876 7.5593 -0.000660402 7.63564 1.6595e-05 7.7132L0.00878722 13.2978C0.00878722 13.3746 0.0505939 13.4512 0.11842 13.4854C0.149863 13.5061 0.186648 13.5171 0.224252 13.5171C0.261857 13.5171 0.298641 13.5061 0.330085 13.4854L2.46252 12.2596C2.59788 12.183 2.68178 12.038 2.68178 11.8848V9.27116C2.68178 9.11797 2.76657 8.97296 2.90222 8.89636L3.80735 8.36866C3.87488 8.32598 3.95148 8.30902 4.02749 8.30902C4.1035 8.30902 4.17981 8.32598 4.23915 8.36866L5.14428 8.89636C5.27964 8.97296 5.36443 9.11797 5.36443 9.27116V11.8848C5.36443 12.038 5.44862 12.183 5.58369 12.2596L7.69917 13.4854C7.73205 13.5064 7.77024 13.5176 7.80924 13.5176C7.84824 13.5176 7.88643 13.5064 7.91931 13.4854C7.95298 13.4671 7.98102 13.44 8.00039 13.4069C8.01977 13.3738 8.02974 13.3361 8.02923 13.2978V7.7132C8.02923 7.56001 7.94445 7.415 7.8088 7.33811L4.23038 5.25246C4.1701 5.22047 4.10417 5.20051 4.03626 5.1937L4.00147 5.19399ZM33.4319 5.25538C33.3579 5.25538 33.2845 5.27468 33.2167 5.31327L29.629 7.39805C29.4936 7.47464 29.4097 7.61965 29.4097 7.77314V11.9363C29.4097 12.0895 29.4936 12.2345 29.629 12.3111L33.191 14.3537C33.2551 14.3914 33.3282 14.4112 33.4025 14.4112C33.4769 14.4112 33.5499 14.3914 33.614 14.3537L35.7716 13.1454C35.8052 13.1271 35.8332 13.0999 35.8525 13.0668C35.8718 13.0338 35.8818 12.996 35.8812 12.9577C35.8817 12.9195 35.8717 12.882 35.8524 12.849C35.8331 12.816 35.8051 12.7889 35.7716 12.7706L32.1678 10.6844C32.135 10.6652 32.1077 10.6378 32.0885 10.605C32.0693 10.5722 32.0588 10.535 32.0581 10.497V9.19427C32.0577 9.15607 32.0677 9.11847 32.087 9.08551C32.1063 9.05255 32.1342 9.02547 32.1678 9.00716L33.2933 8.35989C33.3262 8.33891 33.3644 8.32777 33.4034 8.32777C33.4424 8.32777 33.4806 8.33891 33.5135 8.35989L34.6379 9.00687C34.6708 9.02601 34.6983 9.0533 34.7176 9.08612C34.737 9.11894 34.7476 9.15618 34.7484 9.19427V10.216C34.7484 10.2929 34.7905 10.3695 34.858 10.4034C34.8909 10.4245 34.9292 10.4357 34.9682 10.4357C35.0073 10.4357 35.0455 10.4245 35.0784 10.4034L37.21 9.15217C37.2754 9.11403 37.3294 9.05919 37.3666 8.99328C37.4038 8.92737 37.4228 8.85275 37.4217 8.77708V7.76407C37.4217 7.61088 37.3369 7.46675 37.21 7.38986L33.6479 5.31298C33.5822 5.27538 33.5079 5.25544 33.4322 5.25509L33.4319 5.25538ZM23.6097 8.36428C23.6287 8.36428 23.648 8.36866 23.6652 8.37743L24.8913 9.09253C24.9253 9.10949 24.9425 9.15159 24.9425 9.18579V10.616C24.9425 10.6587 24.9253 10.6932 24.8913 10.7101L23.6649 11.4252C23.6477 11.4336 23.6288 11.438 23.6097 11.438C23.5905 11.438 23.5716 11.4336 23.5544 11.4252L22.328 10.7101C22.2941 10.6932 22.2768 10.6502 22.2768 10.616V9.18579C22.2768 9.14311 22.2944 9.10949 22.328 9.09224L23.5544 8.37743C23.5716 8.36853 23.5904 8.36401 23.6097 8.36428Z" fill="#333333"/>
<path d="M14.0277 5.32961C13.9621 5.29185 13.8877 5.27197 13.812 5.27197C13.7362 5.27197 13.6619 5.29185 13.5962 5.32961L10.0342 7.3986C9.96889 7.43669 9.9149 7.49143 9.87771 7.55723C9.84052 7.62303 9.82147 7.69753 9.8225 7.7731V11.919C9.8225 12.0725 9.90729 12.2172 10.0342 12.2938L13.5962 14.3625C13.6619 14.4002 13.7362 14.4201 13.812 14.4201C13.8877 14.4201 13.9621 14.4002 14.0277 14.3625L17.5895 12.2938C17.7248 12.2172 17.8011 12.0725 17.8011 11.919V7.7731C17.8011 7.61991 17.7164 7.4749 17.5895 7.3986L14.0277 5.32961Z" fill="url(#paint0_linear_66_329)"/>
<path d="M17.5979 7.39849L14.0192 5.3295C13.984 5.31171 13.9472 5.2975 13.9092 5.28711L9.89873 12.1913C9.93264 12.234 9.97474 12.2679 10.0171 12.2937L13.5961 14.3624C13.6976 14.422 13.816 14.439 13.9259 14.4048L17.6911 7.47509C17.6664 7.44267 17.6345 7.41645 17.5979 7.39849Z" fill="url(#paint1_linear_66_329)"/>
<path d="M17.598 12.2937C17.6997 12.2341 17.7757 12.1321 17.8096 12.0213L13.8921 5.2787C13.7909 5.26175 13.6807 5.27023 13.5877 5.32987L10.0342 7.39009L13.8669 14.4221C13.9175 14.4136 13.9769 14.3966 14.0277 14.3709L17.598 12.2937Z" fill="url(#paint2_linear_66_329)"/>
<defs>
<linearGradient id="paint0_linear_66_329" x1="15.2625" y1="6.87023" x2="12.0095" y2="13.4651" gradientUnits="userSpaceOnUse">
<stop stop-color="#3F873F"/>
<stop offset="0.33" stop-color="#3F8B3D"/>
<stop offset="0.637" stop-color="#3E9638"/>
<stop offset="0.934" stop-color="#3DA92E"/>
<stop offset="1" stop-color="#3DAE2B"/>
</linearGradient>
<linearGradient id="paint1_linear_66_329" x1="13.2706" y1="10.3301" x2="22.3468" y2="3.66533" gradientUnits="userSpaceOnUse">
<stop offset="0.138" stop-color="#3F873F"/>
<stop offset="0.402" stop-color="#52A044"/>
<stop offset="0.713" stop-color="#64B749"/>
<stop offset="0.908" stop-color="#6ABF4B"/>
</linearGradient>
<linearGradient id="paint2_linear_66_329" x1="9.69222" y1="9.84488" x2="17.9344" y2="9.84488" gradientUnits="userSpaceOnUse">
<stop offset="0.092" stop-color="#6ABF4B"/>
<stop offset="0.287" stop-color="#64B749"/>
<stop offset="0.598" stop-color="#52A044"/>
<stop offset="0.862" stop-color="#3F873F"/>
</linearGradient>
</defs>
</svg>
