<svg width="23" height="23" viewBox="0 0 23 23" fill="none" xmlns="http://www.w3.org/2000/svg">
<g clip-path="url(#clip0_66_303)">
<path d="M19.1816 0H3.81836C1.70954 0 0 1.75057 0 3.91V19.0532C0 21.2126 1.70954 22.9632 3.81836 22.9632H19.1816C21.2905 22.9632 23 21.2126 23 19.0532V3.91C23 1.75057 21.2905 0 19.1816 0Z" fill="#001E36"/>
<path d="M5.17896 16.103V6.00708C5.17896 5.93342 5.20983 5.89656 5.27158 5.8965L5.36924 5.89623L5.53617 5.89438L5.76815 5.88969L6.5453 5.87286L7.3786 5.85703C7.67167 5.85182 7.96222 5.84918 8.25026 5.84912C9.0319 5.84912 9.69022 5.94919 10.2252 6.14932C10.7079 6.31637 11.148 6.59164 11.5136 6.95505C11.8235 7.27 12.063 7.65006 12.2156 8.06899C12.3599 8.47668 12.433 8.90717 12.4317 9.3408C12.4317 10.1836 12.2414 10.8788 11.8607 11.4263C11.4885 11.9606 10.9693 12.3691 10.3693 12.5999L10.3178 12.6192C9.69136 12.8585 8.99758 12.945 8.2367 12.9504L8.11846 12.9508L7.943 12.9499L7.8545 12.9486L7.75585 12.9462L7.69638 12.9438L7.66026 12.9419L7.5714 12.9385L7.46278 12.9362L7.29927 12.9351L7.26288 12.935V16.0872C7.26559 16.1065 7.26386 16.1262 7.25783 16.1447C7.25181 16.1632 7.24166 16.1801 7.22818 16.1939C7.2147 16.2077 7.19826 16.2181 7.18018 16.2242C7.16209 16.2304 7.14285 16.2322 7.12398 16.2294H5.28704C5.21492 16.2295 5.1789 16.1873 5.17896 16.103ZM7.26297 7.79244V11.0853C7.39654 11.0959 7.51992 11.1012 7.63313 11.1011H8.14236C8.49345 11.0999 8.84249 11.0464 9.17853 10.9422L9.24555 10.9208C9.55129 10.8279 9.82447 10.6469 10.0325 10.3993C10.2258 10.1659 10.326 9.8441 10.3329 9.43408L10.3334 9.38818C10.3415 9.08255 10.2638 8.78098 10.1096 8.51924C9.94752 8.26604 9.71316 8.07017 9.43845 7.95831C9.07981 7.8155 8.69669 7.74835 8.31208 7.76088L8.1164 7.76143L7.99295 7.76254L7.87517 7.7641L7.70896 7.76741L7.58767 7.77091L7.52469 7.7733L7.4405 7.77735L7.36881 7.78186L7.32793 7.78517L7.29262 7.78867L7.27708 7.79051L7.26297 7.79244ZM18.3973 10.4866C18.1281 10.345 17.8426 10.2386 17.5476 10.1699L17.4793 10.1548C17.1546 10.0785 16.8232 10.0365 16.4902 10.0294L16.407 10.0284C16.2118 10.023 16.0168 10.0469 15.8284 10.0995C15.7085 10.1269 15.6019 10.1969 15.5274 10.297C15.4771 10.3771 15.4504 10.4703 15.4503 10.5656C15.4532 10.658 15.4857 10.7468 15.5429 10.8183C15.6248 10.9164 15.7232 10.9985 15.8335 11.0609L15.8669 11.079C16.0869 11.2003 16.3136 11.3085 16.5458 11.4029C17.0636 11.5805 17.5584 11.8219 18.0192 12.1218C18.3332 12.3247 18.5931 12.6043 18.7754 12.9355C18.9286 13.2491 19.0053 13.596 18.9991 13.9466C19.0082 14.4096 18.879 14.8644 18.6287 15.2501C18.3608 15.6416 17.9885 15.946 17.5564 16.1269C17.1038 16.3305 16.5481 16.4358 15.8891 16.4426L15.8207 16.443C15.4122 16.4472 15.0043 16.4106 14.6028 16.3337L14.5169 16.3166C14.1788 16.2531 13.8497 16.147 13.5371 16.0006C13.5057 15.984 13.4791 15.9592 13.4601 15.9286C13.4412 15.8981 13.4305 15.8629 13.4291 15.8267V14.1046C13.4273 14.0879 13.4299 14.071 13.4367 14.0557C13.4435 14.0404 13.4542 14.0273 13.4678 14.0177C13.481 14.01 13.4962 14.0066 13.5114 14.008C13.5265 14.0095 13.5409 14.0156 13.5526 14.0256C13.9217 14.2485 14.3225 14.4111 14.7406 14.5075C15.1091 14.6021 15.4871 14.6525 15.8669 14.6577C16.2269 14.6577 16.4917 14.6103 16.6615 14.5154C16.7382 14.4794 16.803 14.4215 16.8482 14.3486C16.8934 14.2757 16.917 14.191 16.9161 14.1046C16.9161 13.9679 16.839 13.8362 16.6847 13.7097C16.62 13.6567 16.5273 13.599 16.4065 13.5367L16.3487 13.5077L16.2871 13.4779L16.2547 13.4629L16.187 13.4321L16.1517 13.4165L16.078 13.3848L16.0396 13.3687L15.96 13.3361L15.9187 13.3195L15.8331 13.2858L15.7435 13.2514C15.259 13.0789 14.7996 12.8397 14.378 12.5405C14.0764 12.3257 13.828 12.0416 13.6528 11.711C13.5012 11.3996 13.4245 11.0556 13.4291 10.7077C13.4282 10.2897 13.5403 9.87954 13.7531 9.52277C13.9957 9.12993 14.3439 8.81713 14.756 8.62228C15.2085 8.39068 15.7743 8.27479 16.4532 8.27461C16.8508 8.27134 17.2481 8.30041 17.6413 8.36155C17.926 8.39856 18.2043 8.47565 18.4684 8.59063C18.5109 8.60314 18.5451 8.63525 18.5609 8.67757C18.5714 8.71612 18.5765 8.75595 18.5764 8.79607V10.3918C18.5786 10.4295 18.5609 10.4657 18.5301 10.4866C18.5095 10.4971 18.4867 10.5025 18.4637 10.5025C18.4407 10.5025 18.4179 10.4971 18.3973 10.4866Z" fill="#31A8FF"/>
</g>
<defs>
<clipPath id="clip0_66_303">
<rect width="23" height="23" fill="white"/>
</clipPath>
</defs>
</svg>
