<svg width="23" height="23" viewBox="0 0 23 23" fill="none" xmlns="http://www.w3.org/2000/svg">
<path d="M10.5417 17.254H6.37965C3.91481 17.2502 1.91669 15.3268 1.91669 12.954C1.91669 10.5812 3.91481 8.65876 6.37965 8.65876C6.75627 6.97017 8.09889 5.59209 9.90152 5.04296C11.7032 4.4948 13.6927 4.85801 15.1187 6.0013C16.5447 7.14171 17.1906 8.88301 16.8149 10.5716H17.7637C18.4726 10.5732 19.1625 10.8013 19.7326 11.2227C20.3027 11.644 20.7233 12.2365 20.9329 12.9138M19.1667 20.1252L21.0834 18.2085L19.1667 16.2919M16.2917 16.2919L14.375 18.2085L16.2917 20.1252" stroke="white" stroke-width="2" stroke-linecap="round" stroke-linejoin="round"/>
</svg>
