<svg width="23" height="23" viewBox="0 0 23 23" fill="none" xmlns="http://www.w3.org/2000/svg">
<g clip-path="url(#clip0_66_359)">
<path d="M17.2604 7.33468L11.762 15.2848C11.7183 15.3479 11.66 15.3994 11.5921 15.435C11.5241 15.4705 11.4485 15.489 11.3718 15.4889C11.2951 15.4888 11.2196 15.47 11.1517 15.4342C11.0839 15.3985 11.0257 15.3467 10.9823 15.2835C10.9245 15.1991 10.896 15.098 10.9013 14.9958L11.1214 10.6064L7.56859 9.85318C7.49289 9.83703 7.42231 9.80253 7.36306 9.75271C7.30382 9.70289 7.25771 9.63929 7.22881 9.56748C7.20002 9.49567 7.18951 9.41784 7.19823 9.34097C7.20695 9.2641 7.23462 9.1906 7.27876 9.12706L12.7772 1.17697C12.8356 1.09234 12.9199 1.02905 13.0175 0.996684C13.115 0.964323 13.2205 0.964659 13.3179 0.997641C13.4151 1.03021 13.499 1.09362 13.5569 1.17823C13.6147 1.26268 13.6431 1.36366 13.6379 1.46591L13.418 5.85531L16.9704 6.60856C17.0464 6.62473 17.1172 6.65923 17.1765 6.70919C17.2659 6.78419 17.3241 6.8899 17.3396 7.00558C17.3551 7.12126 17.3269 7.23875 17.2604 7.33468Z" fill="#FCC72B"/>
<path d="M11.5023 21.9551C11.207 21.9551 10.9238 21.8378 10.7149 21.629L5.51946 16.4339C5.3644 16.2781 5.25893 16.0798 5.21637 15.8641C5.17381 15.6485 5.19606 15.425 5.28032 15.222C5.36457 15.019 5.50705 14.8454 5.6898 14.7232C5.87255 14.6011 6.08739 14.5357 6.30722 14.5355C6.60197 14.5351 6.88485 14.6516 7.09389 14.8594L11.5023 19.2672L21.1059 9.66396C21.3147 9.45518 21.5979 9.33789 21.8931 9.33789C22.1884 9.33789 22.4716 9.45518 22.6803 9.66396C22.8891 9.87275 23.0064 10.1559 23.0064 10.4512C23.0064 10.7464 22.8891 11.0296 22.6803 11.2384L12.2894 21.629C12.1861 21.7325 12.0634 21.8146 11.9284 21.8705C11.7933 21.9265 11.6485 21.9552 11.5023 21.9551Z" fill="#729B1B"/>
<path d="M11.4978 21.9554C11.6441 21.9554 11.7889 21.9268 11.9239 21.8709C12.059 21.8148 12.1817 21.7327 12.285 21.6292L17.4805 16.4341C17.6885 16.2252 17.805 15.9423 17.8046 15.6475C17.8042 15.3528 17.6869 15.0702 17.4784 14.8618C17.2699 14.6535 16.9874 14.5363 16.6927 14.5359C16.398 14.5355 16.1151 14.6519 15.9061 14.8597L11.4978 19.2674L1.89389 9.66419C1.68438 9.45896 1.40234 9.34469 1.10906 9.34621C0.815778 9.34772 0.53494 9.4649 0.327556 9.67228C0.120171 9.87967 0.00299407 10.1605 0.00147971 10.4538C-3.46542e-05 10.7471 0.114236 11.0291 0.319468 11.2386L10.7104 21.6292C10.8137 21.7327 10.9364 21.8148 11.0714 21.8708C11.2065 21.9267 11.3513 21.9555 11.4975 21.9554H11.4978Z" fill="#729B1B" fill-opacity="0.5"/>
</g>
<defs>
<clipPath id="clip0_66_359">
<rect width="23" height="23" fill="white"/>
</clipPath>
</defs>
</svg>
