<svg width="15" height="24" viewBox="0 0 15 24" fill="none" xmlns="http://www.w3.org/2000/svg">
<path d="M5.04547 16.75V16.4545C5.05304 15.0833 5.18183 13.9924 5.43183 13.1818C5.68941 12.3712 6.05304 11.7197 6.52274 11.2273C6.99244 10.7273 7.56441 10.2689 8.23865 9.85227C8.70077 9.56439 9.11365 9.25 9.47728 8.90909C9.8485 8.56061 10.1402 8.17424 10.3523 7.75C10.5644 7.31818 10.6705 6.83712 10.6705 6.30682C10.6705 5.70833 10.5303 5.18939 10.25 4.75C9.96971 4.31061 9.59092 3.9697 9.11365 3.72727C8.64395 3.48485 8.11744 3.36364 7.5341 3.36364C6.99622 3.36364 6.48486 3.48106 6.00001 3.71591C5.52274 3.94318 5.12501 4.29167 4.80683 4.76136C4.49622 5.22349 4.32198 5.81061 4.2841 6.52273H0.238647C0.276526 5.08333 0.625011 3.87879 1.2841 2.90909C1.95077 1.93939 2.82956 1.21212 3.92047 0.727272C5.01895 0.242424 6.23107 0 7.55683 0C9.0038 0 10.2765 0.253788 11.375 0.761364C12.4811 1.26894 13.3409 1.99242 13.9546 2.93182C14.5758 3.86364 14.8864 4.9697 14.8864 6.25C14.8864 7.11364 14.7462 7.88636 14.4659 8.56818C14.1932 9.25 13.803 9.85606 13.2955 10.3864C12.7879 10.9167 12.1856 11.3902 11.4886 11.8068C10.875 12.1856 10.3712 12.5795 9.97728 12.9886C9.59092 13.3977 9.30304 13.8788 9.11365 14.4318C8.93183 14.9773 8.83713 15.6515 8.82956 16.4545V16.75H5.04547ZM7.02274 23.8409C6.34092 23.8409 5.7538 23.5985 5.26137 23.1136C4.76895 22.6288 4.52274 22.0379 4.52274 21.3409C4.52274 20.6591 4.76895 20.0758 5.26137 19.5909C5.7538 19.1061 6.34092 18.8636 7.02274 18.8636C7.69698 18.8636 8.28031 19.1061 8.77274 19.5909C9.27274 20.0758 9.52274 20.6591 9.52274 21.3409C9.52274 21.803 9.40532 22.2235 9.17047 22.6023C8.94319 22.9811 8.64016 23.2841 8.26138 23.5114C7.89016 23.7311 7.47728 23.8409 7.02274 23.8409Z" fill="black"/>
<path d="M12.5 23.5909C12.0909 23.5909 11.7386 23.4448 11.4432 23.1526C11.1477 22.8603 11 22.5042 11 22.0841C11 21.6731 11.1477 21.3215 11.4432 21.0293C11.7386 20.737 12.0909 20.5909 12.5 20.5909C12.9045 20.5909 13.2545 20.737 13.55 21.0293C13.85 21.3215 14 21.6731 14 22.0841C14 22.3626 13.9295 22.616 13.7886 22.8443C13.6523 23.0726 13.4705 23.2553 13.2432 23.3923C13.0205 23.5247 12.7727 23.5909 12.5 23.5909Z" fill="black"/>
<path d="M1.5 23.5909C1.09091 23.5909 0.738636 23.4448 0.443182 23.1526C0.147727 22.8603 0 22.5042 0 22.0841C0 21.6731 0.147727 21.3215 0.443182 21.0293C0.738636 20.737 1.09091 20.5909 1.5 20.5909C1.90455 20.5909 2.25455 20.737 2.55 21.0293C2.85 21.3215 3 21.6731 3 22.0841C3 22.3626 2.92955 22.616 2.78864 22.8443C2.65227 23.0726 2.47045 23.2553 2.24318 23.3923C2.02045 23.5247 1.77273 23.5909 1.5 23.5909Z" fill="black"/>
</svg>
