<svg width="32" height="32" viewBox="0 0 32 32" fill="none" xmlns="http://www.w3.org/2000/svg">
<circle cx="16" cy="16" r="16" fill="black"/>
<path d="M14.0455 20.75V20.4545C14.053 19.0833 14.1818 17.9924 14.4318 17.1818C14.6894 16.3712 15.053 15.7197 15.5227 15.2273C15.9924 14.7273 16.5644 14.2689 17.2386 13.8523C17.7008 13.5644 18.1136 13.25 18.4773 12.9091C18.8485 12.5606 19.1402 12.1742 19.3523 11.75C19.5644 11.3182 19.6705 10.8371 19.6705 10.3068C19.6705 9.70833 19.5303 9.18939 19.25 8.75C18.9697 8.31061 18.5909 7.9697 18.1136 7.72727C17.644 7.48485 17.1174 7.36364 16.5341 7.36364C15.9962 7.36364 15.4849 7.48106 15 7.71591C14.5227 7.94318 14.125 8.29167 13.8068 8.76136C13.4962 9.22349 13.322 9.81061 13.2841 10.5227H9.23865C9.27653 9.08333 9.62501 7.87879 10.2841 6.90909C10.9508 5.93939 11.8296 5.21212 12.9205 4.72727C14.019 4.24242 15.2311 4 16.5568 4C18.0038 4 19.2765 4.25379 20.375 4.76136C21.4811 5.26894 22.3409 5.99242 22.9546 6.93182C23.5758 7.86364 23.8864 8.9697 23.8864 10.25C23.8864 11.1136 23.7462 11.8864 23.4659 12.5682C23.1932 13.25 22.803 13.8561 22.2955 14.3864C21.7879 14.9167 21.1856 15.3902 20.4886 15.8068C19.875 16.1856 19.3712 16.5795 18.9773 16.9886C18.5909 17.3977 18.303 17.8788 18.1136 18.4318C17.9318 18.9773 17.8371 19.6515 17.8296 20.4545V20.75H14.0455ZM16.0227 27.8409C15.3409 27.8409 14.7538 27.5985 14.2614 27.1136C13.769 26.6288 13.5227 26.0379 13.5227 25.3409C13.5227 24.6591 13.769 24.0758 14.2614 23.5909C14.7538 23.1061 15.3409 22.8636 16.0227 22.8636C16.697 22.8636 17.2803 23.1061 17.7727 23.5909C18.2727 24.0758 18.5227 24.6591 18.5227 25.3409C18.5227 25.803 18.4053 26.2235 18.1705 26.6023C17.9432 26.9811 17.6402 27.2841 17.2614 27.5114C16.8902 27.7311 16.4773 27.8409 16.0227 27.8409Z" fill="white"/>
<path d="M21.5 27.5909C21.0909 27.5909 20.7386 27.4448 20.4432 27.1526C20.1477 26.8603 20 26.5042 20 26.0841C20 25.6731 20.1477 25.3215 20.4432 25.0293C20.7386 24.7371 21.0909 24.5909 21.5 24.5909C21.9045 24.5909 22.2545 24.7371 22.55 25.0293C22.85 25.3215 23 25.6731 23 26.0841C23 26.3626 22.9295 26.6161 22.7886 26.8444C22.6523 27.0727 22.4705 27.2553 22.2432 27.3923C22.0205 27.5247 21.7727 27.5909 21.5 27.5909Z" fill="white"/>
<path d="M10.5 27.5909C10.0909 27.5909 9.73864 27.4448 9.44318 27.1526C9.14773 26.8603 9 26.5042 9 26.0841C9 25.6731 9.14773 25.3215 9.44318 25.0293C9.73864 24.7371 10.0909 24.5909 10.5 24.5909C10.9045 24.5909 11.2545 24.7371 11.55 25.0293C11.85 25.3215 12 25.6731 12 26.0841C12 26.3626 11.9295 26.6161 11.7886 26.8444C11.6523 27.0727 11.4705 27.2553 11.2432 27.3923C11.0205 27.5247 10.7727 27.5909 10.5 27.5909Z" fill="white"/>
</svg>
