<svg width="21" height="23" viewBox="0 0 21 23" fill="none" xmlns="http://www.w3.org/2000/svg">
<path d="M1.84555 20.7007L0 0H20.2801L18.4327 20.6976L10.1278 23L1.84555 20.7007Z" fill="#1572B6"/>
<path d="M10.1403 21.2401L16.8512 19.3795L18.43 1.69238H10.1403V21.2401Z" fill="#33A9DC"/>
<path d="M10.1403 9.19191H13.4998L13.7319 6.59209H10.1403V4.05322H16.5066L16.4457 4.73443L15.8216 11.7308H10.1403V9.19191Z" fill="white"/>
<path d="M10.1553 15.786L10.1441 15.7893L7.31666 15.0259L7.13585 13.001H4.58762L4.94318 16.9874L10.1437 18.4308L10.1553 18.4275V15.786Z" fill="#EBEBEB"/>
<path d="M13.284 11.624L12.9781 15.024L10.1465 15.7884V18.4298L15.3513 16.9874L15.3894 16.5584L15.8311 11.624H13.284Z" fill="white"/>
<path d="M10.1489 4.05322V6.59209H4.01641L3.96556 6.02158L3.84991 4.73443L3.78915 4.05322H10.1489ZM10.1403 9.19228V11.7311H7.34846L7.29761 11.1606L7.18178 9.87348L7.12121 9.19228H10.1403Z" fill="#EBEBEB"/>
</svg>
