<svg width="33" height="23" viewBox="0 0 33 23" fill="none" xmlns="http://www.w3.org/2000/svg">
<path d="M31.7734 8.69317C31.6771 8.62901 30.8752 8.00349 29.143 8.00349C28.6939 8.00349 28.2448 8.0516 27.7957 8.1318C27.4589 5.88633 25.5823 4.74756 25.5021 4.69944L25.037 4.42678L24.7483 4.85983C24.3633 5.43724 24.0586 6.09484 23.9303 6.76848C23.6095 8.0516 23.802 9.27057 24.4596 10.3131C23.6736 10.7622 22.3905 10.8745 22.1179 10.8745H0.994421C0.449093 10.8745 0 11.3236 0 11.8849C0 13.7294 0.288703 15.5739 0.930265 17.3061C1.65202 19.2148 2.74268 20.6262 4.13807 21.4923C5.7099 22.4547 8.29219 23 11.2273 23C12.4944 23 13.8096 22.8877 15.1088 22.6471C16.9052 22.3264 18.6374 21.7008 20.2252 20.7866C21.5403 20.0346 22.7174 19.0637 23.7057 17.9156C25.3898 16.0391 26.3842 13.9059 27.106 12.0614H27.4107C29.2392 12.0614 30.378 11.3236 31.0035 10.698C31.4205 10.3131 31.7252 9.84798 31.9498 9.30265L32.0781 8.91771L31.7734 8.69317ZM2.96722 10.281H5.7901C5.91841 10.281 6.04672 10.1688 6.04672 10.0244V7.49024C6.04672 7.36193 5.93445 7.23361 5.7901 7.23361H2.96722C2.82287 7.23361 2.7106 7.34589 2.7106 7.49024V10.0244C2.72664 10.1688 2.82287 10.281 2.96722 10.281ZM6.86471 10.281H9.68759C9.8159 10.281 9.94421 10.1688 9.94421 10.0244V7.49024C9.94421 7.36193 9.83194 7.23361 9.68759 7.23361H6.86471C6.72036 7.23361 6.60809 7.34589 6.60809 7.49024V10.0244C6.62413 10.1688 6.72036 10.281 6.86471 10.281ZM10.8264 10.281H13.6332C13.7936 10.281 13.9059 10.1688 13.9059 10.0244V7.49024C13.9059 7.36193 13.8096 7.23361 13.6332 7.23361H10.8264C10.698 7.23361 10.5858 7.34589 10.5858 7.49024V10.0244C10.5858 10.1688 10.682 10.281 10.8264 10.281ZM14.7399 10.281H17.5788C17.7071 10.281 17.8194 10.1688 17.8194 10.0244V7.49024C17.8194 7.36193 17.7232 7.23361 17.5788 7.23361H14.7399C14.6116 7.23361 14.4993 7.34589 14.4993 7.49024V10.0244C14.4993 10.1688 14.6116 10.281 14.7399 10.281ZM6.86471 6.68828H9.68759C9.8159 6.68828 9.94421 6.54393 9.94421 6.39958V3.88145C9.94421 3.7371 9.83194 3.62483 9.68759 3.62483H6.86471C6.72036 3.62483 6.60809 3.72106 6.60809 3.88145V6.39958C6.62413 6.54393 6.72036 6.68828 6.86471 6.68828ZM10.8264 6.68828H13.6332C13.7936 6.68828 13.9059 6.54393 13.9059 6.39958V3.88145C13.9059 3.7371 13.8096 3.62483 13.6332 3.62483H10.8264C10.698 3.62483 10.5858 3.72106 10.5858 3.88145V6.39958C10.5858 6.54393 10.682 6.68828 10.8264 6.68828ZM14.7399 6.68828H17.5788C17.7071 6.68828 17.8194 6.54393 17.8194 6.39958V3.88145C17.8194 3.7371 17.7071 3.62483 17.5788 3.62483H14.7399C14.6116 3.62483 14.4993 3.72106 14.4993 3.88145V6.39958C14.4993 6.54393 14.6116 6.68828 14.7399 6.68828ZM14.7399 3.03138H17.5788C17.7071 3.03138 17.8194 2.91911 17.8194 2.77476V0.272664C17.8194 0.112273 17.7071 0 17.5788 0H14.7399C14.6116 0 14.4993 0.0962344 14.4993 0.272664V2.77476C14.4993 2.90307 14.6116 3.03138 14.7399 3.03138ZM18.6855 10.281H21.5084C21.6527 10.281 21.765 10.1688 21.765 10.0244V7.49024C21.765 7.36193 21.6527 7.23361 21.5084 7.23361H18.6855C18.5572 7.23361 18.4449 7.34589 18.4449 7.49024V10.0244C18.4449 10.1688 18.5572 10.281 18.6855 10.281Z" fill="#0288D1"/>
</svg>
