<svg width="23" height="23" viewBox="0 0 23 23" fill="none" xmlns="http://www.w3.org/2000/svg">
<g clip-path="url(#clip0_66_336)">
<path d="M17.6094 0H5.39062C2.41347 0 0 2.41347 0 5.39062V17.6094C0 20.5865 2.41347 23 5.39062 23H17.6094C20.5865 23 23 20.5865 23 17.6094V5.39062C23 2.41347 20.5865 0 17.6094 0Z" fill="#242938"/>
<path d="M20.4844 16.4358C20.2228 16.5349 19.934 16.5347 19.6726 16.4353C19.4112 16.3359 19.1953 16.1441 19.0657 15.8963C18.2514 14.6774 17.3522 13.5134 16.488 12.3245L16.1133 11.825C15.0842 13.2037 14.0552 14.5275 13.116 15.9013C12.9937 16.1382 12.7894 16.3225 12.5413 16.4199C12.2932 16.5173 12.0181 16.5212 11.7673 16.4308L15.6288 11.2505L12.037 6.56968C12.2955 6.47633 12.5784 6.47506 12.8378 6.56606C13.0972 6.65707 13.3172 6.83479 13.4608 7.06921C14.2949 8.28821 15.2192 9.45214 16.1383 10.6861C17.0625 9.46211 17.9767 8.29315 18.8309 7.08422C18.9539 6.85118 19.1582 6.6715 19.4051 6.57939C19.652 6.48728 19.9241 6.48916 20.1697 6.58469L18.7759 8.43304C18.1515 9.25727 17.5371 10.0865 16.8877 10.8908C16.8353 10.9377 16.7935 10.995 16.7648 11.0592C16.7361 11.1233 16.7213 11.1927 16.7213 11.263C16.7213 11.3332 16.7361 11.4027 16.7648 11.4668C16.7935 11.5309 16.8353 11.5883 16.8877 11.6352C18.0816 13.2187 19.2655 14.8073 20.4844 16.4358ZM2.51562 11.1856C2.62056 10.6861 2.68543 10.1415 2.83035 9.63201C3.69455 6.5598 7.21634 5.28087 9.63916 7.18421C11.0579 8.29828 11.4126 9.87683 11.3427 11.6552H3.34991C3.22 14.8323 5.5129 16.7506 8.44522 15.7715C8.92091 15.6013 9.34673 15.3154 9.68425 14.9395C10.0218 14.5636 10.2604 14.1096 10.3785 13.6184C10.5334 13.1188 10.7831 13.0339 11.2577 13.1788C11.1795 13.7869 10.9645 14.3694 10.6288 14.8825C10.2931 15.3956 9.84544 15.8259 9.31949 16.1411C8.4505 16.6164 7.45346 16.8047 6.47098 16.6791C5.4885 16.5535 4.57091 16.1204 3.84945 15.4418C3.13568 14.6392 2.7041 13.6251 2.62056 12.5544C2.62056 12.3845 2.55561 12.2147 2.52066 12.0548C2.51735 11.7651 2.51567 11.4753 2.51562 11.1856ZM3.35989 10.9708H10.5884C10.5433 8.66789 9.08967 7.03435 7.15147 7.01944C4.99343 6.98943 3.44982 8.58793 3.35486 10.9608L3.35989 10.9708Z" fill="white"/>
</g>
<defs>
<clipPath id="clip0_66_336">
<rect width="23" height="23" fill="white"/>
</clipPath>
</defs>
</svg>
