<svg width="23" height="23" viewBox="0 0 23 23" fill="none" xmlns="http://www.w3.org/2000/svg">
<g clip-path="url(#clip0_66_296)">
<path d="M8.17578 23.1797C10.3141 23.1797 12.0391 21.4547 12.0391 19.3164V15.4531H8.17578C6.0375 15.4531 4.3125 17.1781 4.3125 19.3164C4.3125 21.4547 6.0375 23.1797 8.17578 23.1797Z" fill="#0ACF83"/>
<path d="M4.3125 11.5898C4.3125 9.45156 6.0375 7.72656 8.17578 7.72656H12.0391V15.4531H8.17578C6.0375 15.4531 4.3125 13.7281 4.3125 11.5898Z" fill="#A259FF"/>
<path d="M4.3125 3.86328C4.3125 1.725 6.0375 0 8.17578 0H12.0391V7.72656H8.17578C6.0375 7.72656 4.3125 6.00156 4.3125 3.86328Z" fill="#F24E1E"/>
<path d="M12.0391 0H15.9023C18.0406 0 19.7656 1.725 19.7656 3.86328C19.7656 6.00156 18.0406 7.72656 15.9023 7.72656H12.0391V0Z" fill="#FF7262"/>
<path d="M19.7656 11.5898C19.7656 13.7281 18.0406 15.4531 15.9023 15.4531C13.7641 15.4531 12.0391 13.7281 12.0391 11.5898C12.0391 9.45156 13.7641 7.72656 15.9023 7.72656C18.0406 7.72656 19.7656 9.45156 19.7656 11.5898Z" fill="#1ABCFE"/>
</g>
<defs>
<clipPath id="clip0_66_296">
<rect width="23" height="23" fill="white"/>
</clipPath>
</defs>
</svg>
