<svg width="23" height="23" viewBox="0 0 23 23" fill="none" xmlns="http://www.w3.org/2000/svg">
<g clip-path="url(#clip0_66_311)">
<path d="M22.4137 10.4897L12.51 0.586438C11.9401 0.0161094 11.015 0.0161094 10.4442 0.586438L8.38782 2.64314L10.9965 5.25184C11.603 5.04718 12.298 5.18446 12.7812 5.66764C13.2669 6.15388 13.4031 6.85484 13.1934 7.46326L15.7076 9.97762C16.3158 9.76793 17.0178 9.90341 17.5034 10.39C18.1826 11.0687 18.1826 12.1689 17.5034 12.848C17.342 13.0094 17.1503 13.1375 16.9394 13.2249C16.7284 13.3123 16.5024 13.3573 16.274 13.3573C16.0457 13.3573 15.8196 13.3123 15.6087 13.2249C15.3978 13.1375 15.2061 13.0094 15.0447 12.848C14.8023 12.6053 14.637 12.2963 14.5697 11.9599C14.5024 11.6235 14.5361 11.2748 14.6665 10.9575L12.3219 8.6129L12.3215 14.7835C12.4917 14.8673 12.647 14.9782 12.7814 15.112C13.4602 15.7907 13.4602 16.8906 12.7814 17.5707C12.1023 18.2494 11.0017 18.2494 10.3234 17.5707C9.64455 16.8907 9.64455 15.7909 10.3234 15.112C10.4862 14.9493 10.6796 14.8204 10.8925 14.7329V8.50509C10.6794 8.41789 10.4859 8.28892 10.3234 8.12577C9.80914 7.61186 9.68534 6.85717 9.94912 6.22539L7.37725 3.65352L0.586502 10.4439C0.312536 10.718 0.15863 11.0896 0.15863 11.4771C0.15863 11.8646 0.312536 12.2363 0.586502 12.5103L10.4903 22.4136C11.0607 22.9839 11.9853 22.9839 12.5566 22.4136L22.4139 12.5563C22.6878 12.2822 22.8416 11.9105 22.8416 11.523C22.8416 11.1355 22.6876 10.7638 22.4137 10.4897Z" fill="#F34F29"/>
</g>
<defs>
<clipPath id="clip0_66_311">
<rect width="23" height="23" fill="white"/>
</clipPath>
</defs>
</svg>
