<svg width="23" height="23" viewBox="0 0 23 23" fill="none" xmlns="http://www.w3.org/2000/svg">
<g clip-path="url(#clip0_66_307)">
<path d="M4.07891 0.287598H18.9391C21.1852 0.287598 23.018 2.10244 23.018 4.3665V18.6517C23.018 20.8978 21.2031 22.7306 18.9391 22.7306H4.07891C1.81484 22.7126 0 20.8978 0 18.6337V4.3665C0 2.10244 1.81484 0.287598 4.07891 0.287598Z" fill="#330000"/>
<path d="M11.1226 13.71H7.54687L6.82812 15.9561C6.81015 16.0459 6.73827 16.0998 6.64843 16.0818H4.85155C4.74374 16.0818 4.72577 16.0279 4.74374 15.9021L7.83437 7.02559C7.8703 6.93574 7.88827 6.82793 7.92421 6.70215C7.96015 6.50449 7.97812 6.28887 7.97812 6.07324C7.96015 6.01934 8.01405 5.9834 8.04999 5.96543H10.5297C10.6016 5.96543 10.6375 6.00137 10.6555 6.0373L14.1594 15.9021C14.1953 16.01 14.1594 16.0639 14.0695 16.0639H12.057C11.9851 16.0818 11.9312 16.0279 11.8953 15.9561L11.1226 13.71ZM8.1039 11.7514H10.5297C10.4758 11.5537 10.4039 11.3021 10.3141 11.0686C10.2242 10.817 10.1344 10.5295 10.0625 10.242C9.97265 9.93652 9.8828 9.64902 9.79296 9.36152C9.70312 9.05605 9.61327 8.78652 9.5414 8.51699C9.46952 8.24746 9.39765 7.9959 9.32577 7.76231H9.3078C9.21796 8.17559 9.11015 8.58887 8.98437 9.00215C8.84062 9.46934 8.69687 9.93652 8.53515 10.4217C8.3914 10.9068 8.24765 11.3561 8.1039 11.7514ZM16.2976 7.67246C15.9742 7.69043 15.6687 7.56465 15.4531 7.33105C15.2375 7.09746 15.1117 6.77402 15.1297 6.45059C15.1117 6.12715 15.2375 5.82168 15.4711 5.60605C15.7047 5.39043 16.0101 5.26465 16.3156 5.26465C16.693 5.26465 16.9805 5.37246 17.1961 5.60605C17.4117 5.83965 17.5195 6.14512 17.5195 6.45059C17.5375 6.77402 17.4117 7.09746 17.1781 7.33105C16.9445 7.56465 16.6211 7.69043 16.2976 7.67246ZM15.2195 15.992V8.60684C15.2195 8.51699 15.2555 8.48106 15.3453 8.48106H17.25C17.3398 8.48106 17.3758 8.53496 17.3758 8.60684V15.992C17.3758 16.0998 17.3398 16.1537 17.25 16.1537H15.3633C15.2734 16.1357 15.2195 16.0818 15.2195 15.992Z" fill="#FF9A00"/>
</g>
<defs>
<clipPath id="clip0_66_307">
<rect width="23" height="23" fill="white"/>
</clipPath>
</defs>
</svg>
