<svg width="21" height="23" viewBox="0 0 21 23" fill="none" xmlns="http://www.w3.org/2000/svg">
<path d="M19.5183 11.3242C19.5183 10.7565 19.2927 10.212 18.8913 9.81058C18.4898 9.40913 17.9453 9.1836 17.3776 9.1836C17.3025 9.184 17.2274 9.18783 17.1525 9.1951L20.0933 0.522461H7.59687L10.5335 9.1877C10.4908 9.1877 10.4472 9.1836 10.4037 9.1836C9.8925 9.18301 9.39798 9.36538 9.00957 9.69771C8.62115 10.03 8.36448 10.4904 8.28599 10.9955C8.20749 11.5006 8.31234 12.0172 8.58159 12.4517C8.85083 12.8862 9.26668 13.2101 9.75394 13.3647C9.29842 14.1486 8.73146 14.8622 8.07083 15.4831C7.21123 16.3061 6.18917 16.9404 5.07016 17.3453C4.44341 17.0483 3.95324 16.5238 3.69921 15.8784C3.44518 15.2331 3.44635 14.5152 3.70248 13.8707C3.76655 13.7228 3.82925 13.5739 3.89059 13.4238C4.36788 13.3114 4.79214 13.0386 5.09247 12.651C5.3928 12.2634 5.55102 11.7844 5.54067 11.2942C5.53033 10.804 5.35206 10.3321 5.03564 9.95752C4.71923 9.58292 4.28384 9.32826 3.80223 9.23608C3.32062 9.14391 2.82197 9.21981 2.38959 9.4511C1.95722 9.68239 1.61732 10.0551 1.42668 10.5068C1.23605 10.9586 1.20623 11.4621 1.34222 11.9332C1.4782 12.4044 1.77175 12.8145 2.1738 13.0952C1.4894 14.3337 0.967856 15.6553 0.622125 17.0274C0.331339 18.7812 0.622125 20.6417 2.13766 21.6939C5.6698 24.1426 9.50505 20.1759 13.5481 19.1796C15.0135 18.8181 16.6219 18.8764 17.9124 18.1289C18.3786 17.8634 18.7806 17.4985 19.09 17.0601C19.3993 16.6217 19.6084 16.1206 19.7023 15.5924C19.7881 15.089 19.7719 14.5735 19.6546 14.0766C19.5373 13.5796 19.3214 13.1112 19.0196 12.6993C19.3417 12.3145 19.5179 11.8285 19.5174 11.3267L19.5183 11.3242ZM12.5452 11.3357V11.3283C12.5458 10.96 12.4511 10.5977 12.2703 10.2767C12.0895 9.95574 11.8288 9.68699 11.5134 9.49656L13.8496 4.76432L16.1906 9.5401C15.897 9.73526 15.6562 10.0001 15.4897 10.311C15.3233 10.6219 15.2365 10.9691 15.237 11.3218V11.3686L12.5452 11.3357Z" fill="#C63D14"/>
<path d="M20.0416 11.3242C20.0403 10.7036 19.8228 10.1029 19.4266 9.62531C19.0304 9.1477 18.4802 8.82304 17.8705 8.70714L20.8228 0H6.86834L9.82548 8.72439C9.30923 8.83978 8.83905 9.10635 8.47495 9.4901C8.11084 9.87384 7.86932 10.3574 7.78118 10.879C7.69304 11.4006 7.76229 11.9366 7.98009 12.4187C8.1979 12.9007 8.55437 13.307 9.00405 13.5856C8.63184 14.1369 8.19989 14.6455 7.71605 15.102C6.96641 15.8199 6.08499 16.3862 5.12034 16.7695C4.66775 16.5067 4.32468 16.0901 4.15368 15.5955C3.98269 15.1009 3.99517 14.5613 4.18884 14.0752L4.2217 13.9988L4.28248 13.855C4.82995 13.6652 5.30066 13.3022 5.62333 12.8209C5.946 12.3396 6.10305 11.7663 6.07071 11.1878C6.03836 10.6092 5.81838 10.057 5.44407 9.61467C5.06976 9.17235 4.56151 8.86405 3.9963 8.73645C3.43108 8.60886 2.83968 8.66891 2.31166 8.90753C1.78363 9.14614 1.34773 9.55032 1.06998 10.0589C0.792234 10.5674 0.687755 11.1526 0.772369 11.7258C0.856983 12.299 1.12608 12.8291 1.53891 13.2357C1.44965 13.4251 1.35683 13.6185 1.26045 13.8156C0.727862 14.7948 0.340477 15.8463 0.110451 16.937C-0.271513 19.237 0.344558 21.0795 1.84449 22.1186C2.64966 22.6944 3.61541 23.0028 4.6053 23C6.35659 23 8.12841 22.1202 9.86244 21.2594C11.0741 20.6006 12.3523 20.0725 13.6755 19.6839C14.1495 19.5672 14.6374 19.4966 15.1541 19.4218C16.2066 19.3373 17.233 19.0506 18.1769 18.5774C18.7092 18.2734 19.1681 17.8561 19.5211 17.355C19.8741 16.8539 20.1127 16.2813 20.2198 15.6778C20.394 14.6524 20.1924 13.5987 19.6522 12.71C19.9089 12.2931 20.044 11.8129 20.0424 11.3234L20.0416 11.3242ZM18.9959 11.3242C18.9959 11.6443 18.901 11.9571 18.7232 12.2232C18.5454 12.4894 18.2926 12.6968 17.997 12.8192C17.7013 12.9417 17.3759 12.9738 17.062 12.9113C16.7481 12.8489 16.4597 12.6948 16.2334 12.4685C16.0071 12.2421 15.853 11.9538 15.7906 11.6399C15.7281 11.326 15.7602 11.0006 15.8827 10.7049C16.0051 10.4093 16.2125 10.1565 16.4787 9.97871C16.7448 9.8009 17.0576 9.70599 17.3777 9.70599C17.8069 9.70599 18.2185 9.87648 18.5219 10.18C18.8254 10.4834 18.9959 10.895 18.9959 11.3242ZM19.3631 1.04568L16.7559 8.73424C16.6441 8.76077 16.5343 8.79508 16.4273 8.83692L13.8521 3.57978L11.2687 8.80571C11.1564 8.76622 11.0414 8.73492 10.9246 8.71206L8.32637 1.04568H19.3631ZM10.4038 9.70599C10.7238 9.70599 11.0367 9.8009 11.3028 9.97871C11.5689 10.1565 11.7763 10.4093 11.8988 10.7049C12.0213 11.0006 12.0533 11.326 11.9909 11.6399C11.9284 11.9538 11.7743 12.2421 11.548 12.4685C11.3217 12.6948 11.0334 12.8489 10.7195 12.9113C10.4056 12.9738 10.0802 12.9417 9.7845 12.8192C9.48881 12.6968 9.23608 12.4894 9.05827 12.2232C8.88046 11.9571 8.78555 11.6443 8.78555 11.3242C8.78555 10.895 8.95604 10.4834 9.25951 10.18C9.56299 9.87648 9.97459 9.70599 10.4038 9.70599ZM3.40356 9.7216C3.72375 9.72176 4.03669 9.81691 4.30279 9.995C4.56888 10.1731 4.77616 10.4261 4.89839 10.7221C5.02062 11.018 5.05231 11.3436 4.98945 11.6575C4.92658 11.9715 4.77199 12.2597 4.54523 12.4858C4.31848 12.7119 4.02975 12.8656 3.7156 12.9275C3.40145 12.9894 3.076 12.9567 2.78043 12.8336C2.48486 12.7105 2.23246 12.5024 2.05518 12.2358C1.8779 11.9691 1.78371 11.6559 1.78452 11.3357C1.78452 10.9065 1.95501 10.4949 2.25849 10.1915C2.56196 9.88798 2.97356 9.71749 3.40273 9.71749L3.40356 9.7216ZM19.1889 15.4995C19.1077 15.9523 18.928 16.3817 18.6624 16.7573C18.3968 17.1329 18.0519 17.4455 17.652 17.673C16.8225 18.0758 15.9242 18.318 15.0046 18.3868C14.4854 18.4616 13.949 18.5388 13.4242 18.6686C12.0269 19.0733 10.6774 19.6277 9.39916 20.3221C6.80016 21.6126 4.55273 22.7273 2.44002 21.261C0.889986 20.1866 0.961451 18.1987 1.14216 17.1095C1.35461 16.1182 1.7093 15.1629 2.19524 14.2731L2.41702 13.814C2.63762 13.9023 2.86918 13.9603 3.10538 13.9865C2.89631 14.7249 2.95473 15.5134 3.27032 16.213C3.58592 16.9126 4.13842 17.4782 4.83038 17.8102L5.03163 17.9137L5.24438 17.8381C6.43139 17.4104 7.51568 16.7389 8.42741 15.8667C9.03043 15.3004 9.55976 14.6604 10.0029 13.9618C10.5706 14.0482 11.151 13.9486 11.6575 13.6781C12.164 13.4075 12.5695 12.9805 12.8134 12.4606C13.0573 11.9407 13.1266 11.3559 13.0109 10.7935C12.8952 10.231 12.6008 9.72104 12.1715 9.33963L13.8455 5.95453L15.5369 9.40453C15.0556 9.8683 14.7665 10.4961 14.727 11.1633C14.6874 11.8304 14.9003 12.4881 15.3233 13.0055C15.7463 13.5229 16.3485 13.8622 17.0102 13.956C17.6719 14.0497 18.3447 13.8911 18.8949 13.5117C19.1997 14.1274 19.3018 14.8238 19.1865 15.5012L19.1889 15.4995Z" fill="white"/>
</svg>
