<svg width="25" height="23" viewBox="0 0 25 23" fill="none" xmlns="http://www.w3.org/2000/svg">
<g clip-path="url(#clip0_66_234)">
<path d="M20.555 7.44714C20.2889 7.35287 20.0206 7.26551 19.7503 7.18516C19.7957 6.9935 19.8375 6.80415 19.8746 6.61813C20.4838 3.56347 20.0855 1.10257 18.7253 0.292325C17.4211 -0.48443 15.2882 0.325513 13.1341 2.26205C12.9218 2.45324 12.7142 2.64995 12.5115 2.85198C12.3758 2.71764 12.2378 2.58591 12.0974 2.45685C9.83975 0.386241 7.57686 -0.486447 6.21807 0.326118C4.91504 1.10529 4.5292 3.41871 5.07764 6.31368C5.1322 6.6004 5.19381 6.88564 5.2624 7.16912C4.94209 7.26314 4.63301 7.36321 4.33721 7.46974C1.69033 8.42303 0 9.91692 0 11.4665C0 13.0669 1.81465 14.6722 4.57148 15.6455C4.79499 15.7241 5.02035 15.7969 5.24736 15.8639C5.17366 16.1693 5.10821 16.4767 5.05107 16.7857C4.52822 19.6305 4.93652 21.8892 6.23603 22.6635C7.57822 23.463 9.83096 22.6413 12.0244 20.6605C12.2023 20.4995 12.3762 20.3339 12.5461 20.1639C12.7656 20.3827 12.9909 20.5951 13.2219 20.8009C15.3467 22.6895 17.4451 23.4521 18.7434 22.6758C20.0843 21.8739 20.5201 19.4474 19.9543 16.4952C19.9097 16.2639 19.8597 16.0338 19.8044 15.805C19.9626 15.7566 20.1179 15.7068 20.2692 15.6549C23.1353 14.6741 25 13.0883 25 11.4665C25 9.91127 23.2551 8.40729 20.555 7.44714ZM19.9334 14.6078C19.7965 14.6545 19.6566 14.6997 19.5135 14.7435C19.1971 13.7088 18.7701 12.6086 18.2476 11.4718C18.7462 10.3622 19.1567 9.27604 19.4643 8.24811C19.72 8.32457 19.9682 8.40517 20.2074 8.49021C22.5209 9.31297 23.932 10.5292 23.932 11.4665C23.932 12.4648 22.408 13.7607 19.9334 14.6078ZM18.9066 16.7095C19.1568 18.0148 19.1925 19.1951 19.0268 20.1178C18.8779 20.9469 18.5785 21.4996 18.2082 21.7211C17.4204 22.1922 15.7355 21.5798 13.9185 19.9646C13.7037 19.7733 13.494 19.5758 13.2898 19.3724C13.9943 18.5766 14.6983 17.6515 15.3854 16.6239C16.594 16.5132 17.7358 16.332 18.7713 16.0848C18.8224 16.2974 18.8675 16.5056 18.9066 16.7095ZM8.52305 21.6397C7.75332 21.9204 7.14023 21.9285 6.76963 21.7077C5.98105 21.238 5.65322 19.4243 6.10039 16.9915C6.15355 16.7041 6.21441 16.4182 6.28291 16.1342C7.30693 16.3682 8.44043 16.5365 9.65186 16.638C10.3437 17.6434 11.068 18.5675 11.7979 19.3768C11.6428 19.5318 11.484 19.6829 11.3217 19.8299C10.3517 20.7057 9.37969 21.3271 8.52305 21.6397ZM4.91699 14.6017C3.69795 14.1712 2.69121 13.6118 2.00117 13.0014C1.38105 12.453 1.06807 11.9083 1.06807 11.4665C1.06807 10.5261 2.4252 9.32668 4.68877 8.5115C4.96348 8.41264 5.25098 8.31932 5.54932 8.23176C5.86221 9.2829 6.27256 10.382 6.76777 11.4933C6.26611 12.6211 5.8499 13.7377 5.53398 14.8013C5.32677 14.74 5.12105 14.6734 4.91699 14.6017ZM6.12578 6.10174C5.65596 3.62147 5.96797 1.7505 6.75322 1.28092C7.58955 0.780772 9.43896 1.49387 11.3883 3.28182C11.5154 3.39867 11.6405 3.51789 11.7634 3.63943C11.037 4.44514 10.3193 5.36241 9.63369 6.3619C8.45791 6.47448 7.33242 6.65525 6.29766 6.89746C6.23389 6.63379 6.17658 6.3684 6.12578 6.10174ZM16.9097 8.85256C16.6653 8.41646 16.4118 7.98586 16.1494 7.56103C16.9471 7.66524 17.7113 7.80354 18.429 7.97261C18.2136 8.68601 17.945 9.4318 17.6289 10.1964C17.3978 9.74358 17.1581 9.29553 16.9097 8.85256ZM12.512 4.42799C13.0046 4.97928 13.4979 5.59473 13.9832 6.26254C12.9988 6.21451 12.0128 6.21431 11.0284 6.26193C11.5142 5.60028 12.0117 4.98564 12.512 4.42799ZM8.08613 8.86003C7.84085 9.29943 7.60553 9.74469 7.38037 10.1954C7.06943 9.43351 6.80332 8.6843 6.58604 7.96081C7.29932 7.79597 8.05996 7.6612 8.85254 7.55891C8.58726 7.98634 8.33172 8.42023 8.08613 8.86003ZM8.87529 15.4525C8.05645 15.358 7.28438 15.2302 6.57129 15.0698C6.79199 14.3334 7.06396 13.5683 7.38164 12.79C7.60769 13.2411 7.84399 13.6866 8.09033 14.1262C8.34365 14.5781 8.60596 15.0208 8.87529 15.4525ZM12.5415 18.5827C12.0353 18.0186 11.5304 17.3944 11.0373 16.7232C11.516 16.7426 12.004 16.7525 12.5 16.7525C13.0096 16.7525 13.5133 16.7407 14.0091 16.7179C13.5223 17.4012 13.0308 18.0262 12.5415 18.5827ZM17.639 12.7503C17.9731 13.5371 18.2548 14.2982 18.4784 15.022C17.7536 15.1929 16.971 15.3305 16.1464 15.4327C16.4106 15 16.6665 14.5619 16.9139 14.1187C17.1654 13.6681 17.4071 13.2119 17.639 12.7503ZM15.9888 13.5675C15.6101 14.247 15.2101 14.9136 14.7895 15.5663C14.0275 15.6221 13.2639 15.6498 12.5 15.6494C11.722 15.6494 10.9652 15.6243 10.2365 15.5755C9.80489 14.9244 9.39727 14.2565 9.01455 13.5735C8.63358 12.8941 8.27785 12.2 7.94795 11.4927C8.27702 10.7852 8.63177 10.0908 9.01143 9.41092L9.01133 9.41102C9.39079 8.73091 9.79516 8.06595 10.2235 7.41758C10.967 7.35948 11.7294 7.32922 12.4999 7.32922C13.2739 7.32922 14.0374 7.35978 14.7807 7.41829C15.2047 8.06569 15.6065 8.72836 15.9853 9.40507C16.3661 10.0835 16.7256 10.7745 17.063 11.4771C16.729 12.1868 16.3707 12.884 15.9888 13.5675ZM18.1919 1.24793C19.029 1.74667 19.3546 3.75786 18.8286 6.39529C18.7949 6.56369 18.7575 6.73485 18.7163 6.90876C17.679 6.66141 16.5527 6.47751 15.3735 6.36321C14.6866 5.35273 13.9748 4.43404 13.2603 3.63872C13.4475 3.45226 13.6393 3.27062 13.8353 3.09399C15.681 1.43486 17.406 0.779763 18.1919 1.24793ZM12.5 9.16044C13.7329 9.16044 14.7324 10.1929 14.7324 11.4665C14.7324 12.7401 13.7329 13.7725 12.5 13.7725C11.2671 13.7725 10.2676 12.7401 10.2676 11.4665C10.2676 10.1929 11.2671 9.16044 12.5 9.16044Z" fill="#00D8FF"/>
</g>
<defs>
<clipPath id="clip0_66_234">
<rect width="25" height="23" fill="white"/>
</clipPath>
</defs>
</svg>
