<svg width="28" height="23" viewBox="0 0 28 23" fill="none" xmlns="http://www.w3.org/2000/svg">
<g clip-path="url(#clip0_66_241)">
<path d="M14.0009 3.14795C10.2674 3.14795 7.93492 5.00337 7.00085 8.71572C8.40042 6.86009 10.0343 6.16425 11.9004 6.62821C12.9659 6.89228 13.7274 7.66055 14.5707 8.5119C15.9431 9.89683 17.5317 11.5001 21.0009 11.5001C24.734 11.5001 27.0668 9.64451 28.0009 5.93129C26.6009 7.78786 24.9676 8.48406 23.1011 8.01988C22.0358 7.7556 21.2752 6.98755 20.4308 6.13619C19.0592 4.75126 17.4711 3.14795 14.0009 3.14795ZM7.00085 11.5001C3.26767 11.5001 0.934917 13.3558 0.000854492 17.069C1.40071 15.2124 3.0339 14.5162 4.90042 14.9804C5.96595 15.2447 6.72742 16.0127 7.5707 16.8641C8.94314 18.249 10.5317 19.8523 14.0009 19.8523C17.734 19.8523 20.0668 17.9969 21.0009 14.2846C19.6009 16.1403 17.9676 16.8361 16.1011 16.3721C15.0358 16.108 14.2752 15.3397 13.4308 14.4884C12.0592 13.1035 10.4711 11.5001 7.00085 11.5001Z" fill="#38BDF8"/>
</g>
<defs>
<clipPath id="clip0_66_241">
<rect width="28" height="23" fill="white"/>
</clipPath>
</defs>
</svg>
