<svg width="23" height="23" viewBox="0 0 23 23" fill="none" xmlns="http://www.w3.org/2000/svg">
<g clip-path="url(#clip0_66_314)">
<mask id="mask0_66_314" style="mask-type:alpha" maskUnits="userSpaceOnUse" x="0" y="0" width="23" height="23">
<path fill-rule="evenodd" clip-rule="evenodd" d="M16.3097 22.8429C16.4927 22.9142 16.6885 22.9471 16.8848 22.9396C17.0811 22.9321 17.2737 22.8842 17.4507 22.799L22.186 20.5204C22.4299 20.403 22.6356 20.2192 22.7796 19.99C22.9236 19.7609 23 19.4957 23 19.2251V3.77499C23.0001 3.50431 22.9237 3.23912 22.7797 3.00992C22.6357 2.78073 22.4299 2.59685 22.186 2.47944L17.4507 0.201184C17.1831 0.072439 16.8822 0.03005 16.5894 0.0798838C16.2967 0.129717 16.0267 0.26931 15.8168 0.47934L6.75158 8.74964L2.80313 5.75227C2.62499 5.6171 2.40516 5.54852 2.18176 5.55844C1.95836 5.56835 1.74547 5.65612 1.58 5.80654L0.313558 6.95851C0.214864 7.04828 0.135993 7.15765 0.0819901 7.27964C0.0279869 7.40163 4.07198e-05 7.53355 -6.07578e-05 7.66696C-0.000162235 7.80037 0.0275832 7.93233 0.0814008 8.0544C0.135218 8.17648 0.213923 8.28597 0.31248 8.37589L3.73678 11.4999L0.31266 14.6242C0.214156 14.7141 0.135499 14.8236 0.0817147 14.9456C0.0279306 15.0677 0.000203153 15.1996 0.00030462 15.333C0.000406087 15.4664 0.0283343 15.5983 0.082304 15.7202C0.136274 15.8422 0.215098 15.9516 0.313738 16.0414L1.58018 17.1933C1.74563 17.3438 1.9585 17.4316 2.18191 17.4415C2.40531 17.4515 2.62514 17.3829 2.80331 17.2478L6.75176 14.2506L15.817 22.5207C15.9573 22.661 16.1249 22.7707 16.3097 22.8429ZM17.2534 6.27875L10.3752 11.4999L17.2536 16.7213L17.2534 6.27875Z" fill="white"/>
</mask>
<g mask="url(#mask0_66_314)">
<path d="M22.1862 2.48345L17.4471 0.201418C17.1795 0.0725076 16.8783 0.030029 16.5855 0.0798663C16.2926 0.129704 16.0225 0.26939 15.8125 0.479574L0.29864 14.6244C0.200063 14.7143 0.121339 14.8238 0.0675069 14.9458C0.0136751 15.0679 -0.0140783 15.1998 -0.0139768 15.3332C-0.0138753 15.4666 0.0140788 15.5985 0.0680962 15.7205C0.122114 15.8425 0.201004 15.9519 0.299718 16.0416L1.56687 17.1936C1.73237 17.3442 1.94539 17.4321 2.16896 17.4421C2.39252 17.452 2.6125 17.3833 2.79073 17.248L21.473 3.07516C22.0998 2.59971 23 3.04677 23 3.83344V3.77846C23 3.50786 22.9236 3.24275 22.7797 3.01363C22.6357 2.78451 22.43 2.60085 22.1862 2.48345Z" fill="#0065A9"/>
<g filter="url(#filter0_d_66_314)">
<path d="M22.1862 20.5169L17.4471 22.7985C17.1795 22.9275 16.8784 22.97 16.5855 22.9203C16.2926 22.8705 16.0225 22.7309 15.8125 22.5207L0.29864 8.37574C0.200063 8.28585 0.121339 8.17638 0.0675069 8.05432C0.0136751 7.93226 -0.0140783 7.80031 -0.0139768 7.6669C-0.0138753 7.5335 0.0140788 7.40159 0.0680962 7.27961C0.122114 7.15763 0.201004 7.04828 0.299718 6.95854L1.56687 5.80657C1.73237 5.65594 1.94539 5.56802 2.16896 5.55808C2.39252 5.54813 2.6125 5.61679 2.79073 5.75212L21.473 19.9248C22.0998 20.4004 23 19.9534 23 19.1667V19.2217C23 19.4923 22.9236 19.7574 22.7797 19.9865C22.6357 20.2156 22.43 20.3995 22.1862 20.5169Z" fill="#007ACC"/>
</g>
<g filter="url(#filter1_d_66_314)">
<path d="M17.4473 22.7993C17.1795 22.9279 16.8784 22.9703 16.5856 22.9204C16.2927 22.8705 16.0226 22.7309 15.8125 22.5209C16.3429 23.0514 17.25 22.6756 17.25 21.9254V1.07468C17.25 0.324488 16.3429 -0.0512385 15.8125 0.479379C16.0226 0.269358 16.2927 0.129773 16.5856 0.0799131C16.8784 0.030053 17.1795 0.0723792 17.4473 0.201043L22.1855 2.47984C22.4295 2.59717 22.6354 2.78102 22.7795 3.01022C22.9236 3.23942 23 3.50465 23 3.77539V19.2253C23 19.496 22.9236 19.7612 22.7795 19.9904C22.6354 20.2196 22.4295 20.4035 22.1855 20.5208L17.4473 22.7993Z" fill="#1F9CF0"/>
</g>
<path opacity="0.25" fill-rule="evenodd" clip-rule="evenodd" d="M16.2959 22.8429C16.4789 22.9142 16.6746 22.9471 16.8708 22.9396C17.0671 22.932 17.2597 22.8842 17.4367 22.799L22.172 20.5204C22.4159 20.403 22.6217 20.2191 22.7657 19.9899C22.9097 19.7608 22.9861 19.4956 22.986 19.2249V3.77499C22.9861 3.50431 22.9097 3.23912 22.7657 3.00992C22.6217 2.78073 22.4159 2.59685 22.172 2.47944L17.4367 0.201184C17.1691 0.072439 16.8682 0.03005 16.5754 0.0798838C16.2827 0.129717 16.0127 0.26931 15.8028 0.47934L6.73758 8.74964L2.78913 5.75245C2.61098 5.61728 2.39116 5.5487 2.16776 5.55862C1.94435 5.56853 1.73146 5.6563 1.56599 5.80672L0.299555 6.95869C0.200886 7.04847 0.122037 7.15785 0.0680496 7.27984C0.0140622 7.40183 -0.0138753 7.53374 -0.0139768 7.66714C-0.0140782 7.80054 0.0136586 7.9325 0.0674603 8.05457C0.121262 8.17664 0.199944 8.28614 0.298477 8.37607L3.72278 11.4999L0.298656 14.624C0.2001 14.7139 0.121395 14.8234 0.0675773 14.9455C0.0137598 15.0675 -0.0139857 15.1995 -0.0138842 15.3329C-0.0137827 15.4663 0.0141635 15.5982 0.0681667 15.7202C0.12217 15.8422 0.201041 15.9516 0.299735 16.0414L1.56617 17.1933C1.73162 17.3438 1.9445 17.4316 2.1679 17.4415C2.3913 17.4515 2.61114 17.3829 2.7893 17.2478L6.73794 14.2504L15.8032 22.5207C15.9434 22.6609 16.1112 22.7706 16.2959 22.8429ZM17.2396 6.27858L10.3612 11.4999L17.2396 16.7211V6.27858Z" fill="url(#paint0_linear_66_314)"/>
</g>
</g>
<defs>
<filter id="filter0_d_66_314" x="-1.05573" y="4.51538" width="25.0975" height="19.4668" filterUnits="userSpaceOnUse" color-interpolation-filters="sRGB">
<feFlood flood-opacity="0" result="BackgroundImageFix"/>
<feColorMatrix in="SourceAlpha" type="matrix" values="0 0 0 0 0 0 0 0 0 0 0 0 0 0 0 0 0 0 127 0" result="hardAlpha"/>
<feOffset/>
<feGaussianBlur stdDeviation="0.520875"/>
<feColorMatrix type="matrix" values="0 0 0 0 0 0 0 0 0 0 0 0 0 0 0 0 0 0 0.25 0"/>
<feBlend mode="overlay" in2="BackgroundImageFix" result="effect1_dropShadow_66_314"/>
<feBlend mode="normal" in="SourceGraphic" in2="effect1_dropShadow_66_314" result="shape"/>
</filter>
<filter id="filter1_d_66_314" x="14.7708" y="-0.98218" width="9.271" height="24.9648" filterUnits="userSpaceOnUse" color-interpolation-filters="sRGB">
<feFlood flood-opacity="0" result="BackgroundImageFix"/>
<feColorMatrix in="SourceAlpha" type="matrix" values="0 0 0 0 0 0 0 0 0 0 0 0 0 0 0 0 0 0 127 0" result="hardAlpha"/>
<feOffset/>
<feGaussianBlur stdDeviation="0.520875"/>
<feColorMatrix type="matrix" values="0 0 0 0 0 0 0 0 0 0 0 0 0 0 0 0 0 0 0.25 0"/>
<feBlend mode="overlay" in2="BackgroundImageFix" result="effect1_dropShadow_66_314"/>
<feBlend mode="normal" in="SourceGraphic" in2="effect1_dropShadow_66_314" result="shape"/>
</filter>
<linearGradient id="paint0_linear_66_314" x1="11.486" y1="0.0592309" x2="11.486" y2="22.9406" gradientUnits="userSpaceOnUse">
<stop stop-color="white"/>
<stop offset="1" stop-color="white" stop-opacity="0"/>
</linearGradient>
<clipPath id="clip0_66_314">
<rect width="23" height="23" fill="white"/>
</clipPath>
</defs>
</svg>
